G04*
G04 #@! TF.GenerationSoftware,Altium Limited,Altium Designer,20.0.13 (296)*
G04*
G04 Layer_Color=8388736*
%FSLAX25Y25*%
%MOIN*%
G70*
G01*
G75*
%ADD19R,0.06706X0.06706*%
%ADD20C,0.06706*%
%ADD21R,0.08674X0.08674*%
%ADD22C,0.08674*%
%ADD23O,0.13398X0.07099*%
%ADD24O,0.08674X0.04737*%
%ADD25O,0.08674X0.04737*%
%ADD26C,0.05524*%
%ADD27R,0.05524X0.05524*%
%ADD28C,0.06312*%
%ADD29C,0.07296*%
%ADD30R,0.05249X0.05249*%
%ADD31C,0.05249*%
%ADD32C,0.05800*%
D19*
X80000Y225000D02*
D03*
D20*
Y235000D02*
D03*
X90000Y225000D02*
D03*
Y235000D02*
D03*
X100000Y225000D02*
D03*
Y235000D02*
D03*
X110000Y225000D02*
D03*
Y235000D02*
D03*
X120000Y225000D02*
D03*
Y235000D02*
D03*
X130000Y225000D02*
D03*
Y235000D02*
D03*
X140000Y225000D02*
D03*
Y235000D02*
D03*
X150000Y225000D02*
D03*
Y235000D02*
D03*
X160000Y225000D02*
D03*
Y235000D02*
D03*
X170000Y225000D02*
D03*
Y235000D02*
D03*
X180000Y225000D02*
D03*
Y235000D02*
D03*
X190000Y225000D02*
D03*
Y235000D02*
D03*
X200000Y225000D02*
D03*
Y235000D02*
D03*
X210000Y225000D02*
D03*
Y235000D02*
D03*
X220000Y225000D02*
D03*
Y235000D02*
D03*
X230000Y225000D02*
D03*
Y235000D02*
D03*
D21*
X125591Y125000D02*
D03*
D22*
X84409D02*
D03*
D23*
X192874Y106220D02*
D03*
X185000Y91654D02*
D03*
Y70000D02*
D03*
X192874Y60551D02*
D03*
D24*
X155000Y75000D02*
D03*
D25*
Y80000D02*
D03*
Y85000D02*
D03*
D26*
X115000Y45000D02*
D03*
Y55000D02*
D03*
X80000Y150000D02*
D03*
Y180000D02*
D03*
X125000Y150000D02*
D03*
X300000D02*
D03*
Y180000D02*
D03*
X255000Y150000D02*
D03*
D27*
X115000Y65000D02*
D03*
X125000Y180000D02*
D03*
X255000D02*
D03*
D28*
X85000Y85000D02*
D03*
Y45000D02*
D03*
D29*
Y105000D02*
D03*
X155000D02*
D03*
D30*
X175000Y149370D02*
D03*
D31*
X185000D02*
D03*
X195000D02*
D03*
X205000D02*
D03*
Y180630D02*
D03*
X195000D02*
D03*
X185000D02*
D03*
X175000D02*
D03*
D32*
X195000Y135000D02*
D03*
X160000D02*
D03*
X180000Y200000D02*
D03*
X205000D02*
D03*
M02*
