M48
;Layer_Color=9474304
;FILE_FORMAT=2:5
INCH,LZ
;TYPE=PLATED
T1F00S00C0.01500
T2F00S00C0.02756
T3F00S00C0.03071
T4F00S00C0.03346
T5F00S00C0.03543
T6F00S00C0.03937
T8F00S00C0.04724
%
T01
X016Y0135
X0195
X0205Y02
X018
T02
X0115Y0045
Y0055
X0255Y015
Y018
X03
Y015
X0125
Y018
X008
Y015
X0115Y0065
T03
X0175Y014937
X0185
X0195
X0205
Y018063
X0195
X0185
X0175
T04
X0085Y0045
Y0085
T05
X0155Y0075
Y008
Y0085
X015Y0225
X014
X013
X012
X011
X01
X009
X008
Y0235
X009
X01
X011
X012
X013
X014
X015
X016
Y0225
X017
Y0235
X018
Y0225
X019
Y0235
X02
Y0225
X021
Y0235
X022
Y0225
X023
Y0235
T06
X0085Y0105
X0155
T08
X0084409Y0125
X0125591
M30
